<?xml version="1.0" encoding="UTF-8"?>
<svg id="Layer_1" xmlns="http://www.w3.org/2000/svg" version="1.1" viewBox="0 0 432 189.46">
  <!-- Generator: Adobe Illustrator 29.2.1, SVG Export Plug-In . SVG Version: 2.1.0 Build 116)  -->
  <defs>
    <style>
      .st0 {
        fill: #fff;
      }

      .st1 {
        fill: #e4002b;
      }
    </style>
  </defs>
  <g>
    <path class="st0" d="M412.2,25.53c-7.19-.53-17.82,1.14-23.38,3.66-5.08,2.31-9.58,5.63-13.37,9.87-2.89,3.23-5.35,6.96-7.32,11.11-.24.5-.94.5-1.18,0-2.31-4.83-5.73-12.39-6.53-13.99-.71-1.51-1.87-2.4-3.55-2.04-3.42.54-24.84,3.58-35.17,5.05-.42.06-.71-.41-.47-.76,3.19-4.68,4.72-10.25,4.23-15.56-.5-5.37-3.02-10.19-7.1-13.58-4.28-3.55-10.13-5.43-16.91-5.43-.3,0-.6,0-.91.01-6.25.15-12.45,1.95-17.47,5.09-6.26,3.91-10.21,9.53-11.42,16.26-1.56,8.66,1.35,14.34,4.06,17.58.72.86,1.5,1.65,2.36,2.37.27.23.15.67-.2.71-6.17.87-39.7,5.61-41.27,5.94-1.69.36-1.96.92-2.66,3.2-2.4,7.74-9.53,30.67-10.66,34.34-.09.3-.53.26-.57-.05-.79-7.02-3.5-30.61-3.74-32.33-.27-1.87-1.57-2.33-3.43-2.06-.88.13-40.11,5.8-41.33,6.02-1.22.23-2.18.73-2.75,2.75-.55,1.93-6.62,19.69-11.53,34.26-.14.41-.74.34-.77-.09-.59-7.14-2.21-26.1-2.57-30.19,11.45-7.33,13.85-18.39,14.65-20.61.7-1.95.02-3.33-1.83-4.58,0,0-27.15-20.21-28.83-21.43-1.68-1.22-3.17-.67-3.97.84-6.86,12.96-14.89,16.47-26.74,17.21-2.09.13-4.21.19-6.5.19h0c-7.23,0-14.7-.66-21.92-1.3-3.03-.27-6.16-.55-9.27-.77h-.03c-4.3-.3-9.17-.64-14.12-.64-10.02,0-17.88,1.44-24.75,4.54l-.04.02c-10.29,4.73-19.5,13.55-23.92,28.11-.66,2.16.31,2.67,1.6,3.66,2.57,1.97,26.54,19.32,30.28,21.81,1.83,1.22,3.97,1.22,4.58-1.07.58-2.19,4.51-13.28,12.46-18.7.42-.29.98.09.88.59-3.61,18.24-20.7,104.24-21.34,106.97-.47,1.98,1.2,2.92,3.07,2.6,3.1-.52,46.57-6.67,48.96-7.03,2.08-.32,2.5-.83,3.07-3.07.38-1.47,8.41-41.88,14.38-71.93.08-.41.68-.39.73.03,3.49,29.59,8.17,66.52,8.44,68.42.29,2.05,1.03,2.6,3.36,2.07s37.57-5.15,39.79-5.6c2.03-.41,2.69-1.65,3.55-3.2.86-1.55,12.73-26.99,14.6-31.35.31-.73,1.35-.68,1.46.1,1.41,10.59,3.13,25.2,3.39,27.34.27,2.13,1.17,3.26,3.2,2.93,2.03-.33,34.28-4.86,37.04-5.33,2.76-.47,3.38-1.07,4.44-3.38.68-1.47,19.38-39.3,33.2-67.24.14-.28.56-.13.5.17-1.94,9.73-10.41,52.08-12.67,63.14-.44,2.14.84,3.47,2.63,3.1,1.79-.37,49.65-7.26,51.55-7.56,10.71-1.66,22.99-4.97,31.21-10.68,6.75-4.69,10.42-10.82,11.78-13.38.24-.44.88-.43,1.09.03,2.22,4.78,5.63,11.83,6.41,13.66.85,1.98,1.53,2.71,3.66,2.36,4.81-.79,42.05-6.2,45.38-6.63,3.43-.76,2.09-3.68,2.06-3.74-5.13-10.99-20.67-43.65-20.63-43.76,2.36-5.97,7.64-11.19,19.54-9.24,2.22.36,4,.71,4.44-2.04.35-2.15,8.65-44.18,8.79-44.86.36-2.49-1.42-2.93-4-2.93ZM309.78,97.39c2.48-12.59,5.04-25.62,7.09-35.97.06-.3.46-.34.59-.07,2.02,4.33,10.77,23,12.64,26.98.22.47.19,1.02-.07,1.47-4.59,7.65-10.69,8.78-19.96,7.97-.18-.02-.32-.19-.28-.37Z"/>
    <path class="st1" d="M300.68,10.18c25.68-.61,23.56,29.5.64,33.81-13.23,2.49-26.04-3.33-23.46-17.66,1.93-10.74,13.25-15.92,22.81-16.14Z"/>
    <path class="st1" d="M141.16,29.44c2.99,2.17,17.84,13.41,22.63,16.95.78.58.81.95.56,1.7-2.93,8.96-10.37,15.52-19.27,17.93-10.79,2.92-25.36.51-33.64-1.72-1.98-.53-2.7-.48-3.28,1.3-1.83,5.59-20.5,103.23-20.87,105.09-.23,1.16-.44,1.38-1.2,1.48-13.56,1.89-26.29,3.95-39.89,5.76-.53.07-.92-.76-.79-1.4,1.64-8.44,21.04-104.9,22.14-111.16.19-1.07-.44-1.29-1.71-.92-11.82,3.51-19.45,10.91-23.5,20.33-.39.9-.83,2.21-2,1.37-7.89-5.6-15.08-10.69-22.58-16.25-1.21-.9-1.51-1.32-.82-3.11,3.5-8.98,10.28-15.93,18.95-19.92,11.12-5.01,23.95-4.18,35.83-3.36,12.81.94,25.65,2.69,38.54,1.89,12.56-.78,22.14-4.75,29.2-15.59.43-.66,1.01-.88,1.7-.38Z"/>
    <path class="st1" d="M407.62,31.81c1.46-.05,1.47.71,1.24,1.73-.3,1.35-6.01,30.47-6.82,34.36-.16.76-.43,1.08-1.52.92-9.82-1.47-18.94,2.81-23,13.1-1.12,2.83-.54,4.27.27,5.9,1.23,2.47,12.01,25.16,17.37,36.63.47,1.01,1.17,2.02-.38,2.22-4.22.55-29.82,4.38-35.66,5.25-.9.13-1.52-.32-1.73-.76-3.75-7.49-7.74-16.41-11.15-24.08-.65-1.46-1.95-2.11-2.38.27-3.97,21.85-19.59,29.6-41.18,32.85-1.01.15-1.29-.7-1.08-1.52,2.05-9.63,6.23-31.78,6.55-32.95.19-.78.16-1.68,1.68-1.46,7.96,1.14,18.77-1.11,24.08-8.71,1.64-2.34,4.26-5.21,2.51-9.07-.96-2.13-18.63-38.97-18.12-39.97.14-.11.28-.21.41-.32,8.74-1.21,32.7-4.78,35.66-5.29.86-.15,1.46-.05,1.79.87,2.47,7,10.99,23.38,11.74,24.95.6,1.24,1.64,1.27,1.89-.22,2.65-15.53,12.77-34.52,37.83-34.69Z"/>
    <path class="st1" d="M312.05,47.18c.81-.11,1.08.6.97,1.14-4.77,23.83-17.76,90.32-18.07,91.51-.17.64-.38,1.75-1.68,1.89-9.03.98-33.59,4.79-35.61,5.19-1.01.12-1.99,0-1.79-.97,5.07-24.8,17.93-90.66,18.4-92.21.21-.69.54-1.08,1.41-1.19,5.84-.73,24.74-3.56,36.36-5.36Z"/>
    <path class="st1" d="M268.47,53.53c1.41-.26,1.13,1.18.77,1.89-2.79,5.78-41.66,84.52-47.02,95.5-.54,1.11-.87,1.35-2.06,1.52-2.08.28-22.89,3.3-30.41,4.38-.82.12-1.19-.03-1.33-1.14-.28-2.33-5.36-41.18-5.69-43.8-.13-1.02-1.35-.8-1.6-.29-5.11,10.48-15.14,32.36-23.04,48.63-.54,1.12-.67,1.47-1.95,1.65-3.12.44-28.04,4.09-32.98,4.74-.99.13-.99-.32-1.12-1.15-.29-1.85-7.3-60.24-10.35-87.39-.12-1.04-.06-1.54,1.18-1.69,3.04-.38,27.43-3.81,36.23-5.21.8-.13,1.33.08,1.45.9.13.93,3.3,42.32,4.54,55.98.06.7,1.18,1.15,1.53.26,4.98-15.08,18.59-55.4,20.23-60.2.25-.65.39-1.14,1.31-1.28,11.73-1.76,22.02-3.29,33.87-4.95.73-.1,1.2.19,1.28,1.02.54,5.85,4.7,42.55,5.88,55.92.1,1.09,1.38,1.16,1.63.38,6.39-20.07,12.49-40.71,18.63-60.49.1-.32.61-.94.93-.99,7.67-1.25,18.59-2.63,28.09-4.19Z"/>
  </g>
  <path class="st0" d="M409.86,124.43v-.04c0-3.56,2.88-6.56,6.52-6.56s6.52,2.96,6.52,6.52v.04c0,3.56-2.88,6.56-6.52,6.56s-6.52-2.96-6.52-6.52ZM421.69,124.4v-.03c0-2.93-2.28-5.35-5.31-5.35s-5.31,2.45-5.31,5.38v.03c0,2.93,2.28,5.35,5.31,5.35s5.31-2.45,5.31-5.38ZM413.83,120.95h3c1.46,0,2.55.71,2.55,2.1,0,1.09-.64,1.76-1.54,2.02l1.76,2.51h-1.54l-1.57-2.28h-1.39v2.28h-1.27v-6.63ZM416.71,124.25c.86,0,1.35-.45,1.35-1.09,0-.71-.49-1.09-1.35-1.09h-1.61v2.17h1.61Z"/>
</svg>